<?xml version="1.0" encoding="utf-8"?>
<!-- Generator: Adobe Illustrator 19.2.0, SVG Export Plug-In . SVG Version: 6.00 Build 0)  -->
<svg version="1.1" id="Layer_1" xmlns="http://www.w3.org/2000/svg" xmlns:xlink="http://www.w3.org/1999/xlink" x="0px" y="0px"
	 viewBox="0 0 550 550" enable-background="new 0 0 550 550" xml:space="preserve">
<g id="Icon_Grid">
	<g id="squares">
	</g>
	<g>
	</g>
</g>
<g id="Working_Layer">
	<g id="framework-icon">
		<circle id="background" fill="#333333" cx="274.6" cy="275" r="250.4"/>
		<path id="gear" fill="#FFFFFF" d="M468.2,241.3H443c-3.1,0-5.7-2.1-6.5-5.1c-4.1-17.3-11-33.5-20-48.2c-1.6-2.6-1.2-6,1-8.2
			l17.8-17.8c2.6-2.6,2.6-6.8,0-9.4l-38.3-38.3c-2.6-2.6-6.8-2.6-9.4,0l-17.8,17.8c-2.2,2.2-5.6,2.6-8.2,1c-14.7-9-31-15.9-48.2-20
			c-3-0.7-5.1-3.4-5.1-6.5V81.4c0-3.7-3-6.7-6.7-6.7h-54.1c-3.7,0-6.7,3-6.7,6.7v25.2c0,3.1-2.1,5.7-5.1,6.5
			c-17.3,4.1-33.5,11-48.2,20c-2.6,1.6-6,1.2-8.2-1l-17.8-17.8c-2.6-2.6-6.8-2.6-9.4,0l-38.3,38.3c-2.6,2.6-2.6,6.8,0,9.4l17.8,17.8
			c2.2,2.2,2.6,5.6,1,8.2c-9,14.7-15.9,31-20,48.2c-0.7,3-3.4,5.1-6.5,5.1H81c-3.7,0-6.7,3-6.7,6.7v54.1c0,3.7,3,6.7,6.7,6.7h25.2
			c3.1,0,5.7,2.1,6.5,5.1c4.1,17.3,11,33.5,20,48.2c1.6,2.6,1.2,6-1,8.2L113.9,388c-2.6,2.6-2.6,6.8,0,9.4l38.3,38.3
			c2.6,2.6,6.8,2.6,9.4,0l17.8-17.8c2.2-2.2,5.6-2.6,8.2-1c14.7,9,31,15.9,48.2,20c3,0.7,5.1,3.4,5.1,6.5v25.2c0,3.7,3,6.7,6.7,6.7
			h54.1c3.7,0,6.7-3,6.7-6.7v-25.2c0-3.1,2.1-5.7,5.1-6.5c17.3-4.1,33.5-11,48.2-20c2.6-1.6,6-1.2,8.2,1l17.8,17.8
			c2.6,2.6,6.8,2.6,9.4,0l38.3-38.3c2.6-2.6,2.6-6.8,0-9.4l-17.8-17.8c-2.2-2.2-2.6-5.6-1-8.2c9-14.7,15.9-31,20-48.2
			c0.7-3,3.4-5.1,6.5-5.1h25.2c3.7,0,6.7-3,6.7-6.7v-54.1C474.9,244.2,471.9,241.3,468.2,241.3z M275.1,407.2
			c-73.3,0-132.7-59.4-132.7-132.7s59.4-132.7,132.7-132.7s132.7,59.4,132.7,132.7S348.4,407.2,275.1,407.2z"/>
	</g>
</g>
</svg>
