<?xml version="1.0" encoding="utf-8"?>
<!-- Generator: Adobe Illustrator 19.2.0, SVG Export Plug-In . SVG Version: 6.00 Build 0)  -->
<svg version="1.1" id="Layer_1" xmlns="http://www.w3.org/2000/svg" xmlns:xlink="http://www.w3.org/1999/xlink" x="0px" y="0px"
	 viewBox="0 0 75 77" enable-background="new 0 0 75 77" xml:space="preserve">
<g enable-background="new    ">
	<g id="background-color_2_">
		<path fill="#454DA1" d="M49.6,77H25.5c-12.7,0-23-11.3-23-25.1V25.5c0-13.8,10.3-25.1,23-25.1h24.1c12.7,0,23,11.3,23,25.1v26.2
			C72.7,65.7,62.3,77,49.6,77z"/>
	</g>
	<g enable-background="new    ">
		<path fill="#181870" d="M14.5,27.6c0-2.2,0.4-4.2,1.1-6.2c0.7-2,1.8-3.7,3.3-5.2s3.2-2.7,5.3-3.4c2.1-0.7,4.4-1.2,7-1.2
			c2.6,0,4.9,0.4,7,1.2c2.1,0.9,3.8,2,5.3,3.6c1.5,1.6,2.5,3.2,3.2,5.2s1.1,4.1,1.1,6.3s-0.4,4.3-1.1,6.3s-1.7,3.7-3.2,5.2
			c-1.5,1.5-3.1,2.7-5.2,3.6c-2.1,0.9-4.4,1.4-7.1,1.4c-2.8,0-5.3-0.5-7.5-1.5s-3.8-2.2-5.2-3.8c-1.4-1.6-2.3-3.3-3-5.3
			C15,31.7,14.5,29.6,14.5,27.6z M22.2,27.2c0,2.2,0.1,4.3,0.5,6.4c0.4,2.1,1.1,4.1,2.5,5.9c1.4,1.8,3.4,2.7,6.2,2.7
			c3.8,0,6.3-1.6,7.4-4.7c1.1-3.1,1.6-6.3,1.6-9.5c0-2.5-0.2-4.8-0.6-7S38.3,17,37,15.5c-1.4-1.5-3.2-2.3-5.7-2.3
			c-2.7,0-4.8,0.9-6.2,2.7c-1.4,1.8-2.2,3.7-2.5,5.7C22.4,23.5,22.2,25.4,22.2,27.2z"/>
	</g>
	<path fill="#181870" d="M49.9,36.5l-0.7,0.4c-1.5-1.5-3-2.5-4.6-3s-3.2-0.2-4.8,0.6c-0.7,0.4-1.4,1-1.8,1.6
		c-0.5,0.6-0.7,1.4-0.9,2.1c-0.1,0.7,0.1,1.6,0.5,2.3c0.2,0.5,0.5,0.9,0.9,1.2s1,0.7,1.8,1s2.1,0.6,3.6,0.7c1.7,0.1,2.7,0.2,3.2,0.4
		c2.1,0.1,3.9,0.5,5.4,0.7c1.5,0.4,2.7,0.9,3.8,1.6c1.1,0.7,2,1.7,2.6,3.1c0.6,1.2,1,2.3,1,3.6s-0.1,2.3-0.6,3.6
		c-0.5,1.1-1.2,2.2-2.1,3.2c-1,1-2.1,1.8-3.4,2.6c-1.4,0.7-3.2,1.4-5.3,1.7c-0.2,0-0.5,0.1-0.9,0.2c-0.4,0.1-0.6,0.2-0.9,0.4
		c-0.6,0.4-0.9,0.9-0.9,1.6l-0.6,0.4l-3.9-8.1L42,58c1,1.4,2.2,2.3,3.6,3s2.6,0.9,3.8,0.7c1.2-0.1,2.3-0.4,3.3-0.9
		c1.5-0.7,2.3-1.7,3-3.1s0.5-2.5-0.1-3.6c-0.4-0.7-1-1.4-1.6-1.7c-0.7-0.4-1.6-0.6-2.6-0.7c-1-0.1-3.1-0.4-5.9-0.6
		c-1.5-0.1-2.8-0.4-4.1-0.6c-1.1-0.2-2.1-0.6-3-1c-0.7-0.4-1.5-0.9-2-1.4c-0.5-0.5-1-1.1-1.4-1.8c-0.7-1.4-1.1-3-1.1-4.7
		c0-1.7,0.5-3.3,1.4-4.9c0.9-1.5,2.1-2.7,3.8-3.6c0.7-0.4,1.6-0.7,2.3-1c0.2-0.1,0.5-0.1,0.9-0.2c0.4-0.1,0.6-0.1,0.9-0.2
		c0.6-0.2,1.1-0.4,1.4-0.5c0.5-0.2,0.7-0.5,0.9-0.7c0.1-0.2,0.1-0.5,0.1-0.9l0.6-0.4L49.9,36.5z"/>
</g>
</svg>
