<?xml version="1.0" encoding="utf-8"?>
<!-- Generator: Adobe Illustrator 19.2.0, SVG Export Plug-In . SVG Version: 6.00 Build 0)  -->
<svg version="1.1" id="Layer_1" xmlns="http://www.w3.org/2000/svg" xmlns:xlink="http://www.w3.org/1999/xlink" x="0px" y="0px"
	 viewBox="0 0 75 77" style="enable-background:new 0 0 75 77;" xml:space="preserve">
<style type="text/css">
	.st0{fill:#282727;}
	.st1{enable-background:new    ;}
	.st2{fill:#EFEFEF;}
</style>
<g id="background-color">
	<path class="st0" d="M50.2,74.7H24.5C11,74.7,0,63.7,0,50.2V24.5C0,11,11,0,24.5,0h25.6c13.5,0,24.5,11,24.5,24.5v25.6
		C74.7,63.7,63.7,74.7,50.2,74.7z"/>
</g>
<g id="logo">
	<g class="st1">
		<path class="st2" d="M18.2,28.8c0-1.8,0.3-3.4,0.9-5s1.5-3,2.7-4.2s2.6-2.2,4.3-2.8s3.6-1,5.7-1c2.1,0,4,0.3,5.7,1
			s3.1,1.6,4.3,2.9s2,2.6,2.6,4.2s0.9,3.3,0.9,5.1c0,1.8-0.3,3.5-0.9,5.1s-1.4,3-2.6,4.2s-2.5,2.2-4.2,2.9s-3.6,1.1-5.8,1.1
			c-2.3,0-4.3-0.4-6.1-1.2s-3.1-1.8-4.2-3.1s-1.9-2.7-2.4-4.3S18.2,30.4,18.2,28.8z M24.4,28.5c0,1.8,0.1,3.5,0.4,5.2s0.9,3.3,2,4.8
			s2.8,2.2,5,2.2c3.1,0,5.1-1.3,6-3.8s1.3-5.1,1.3-7.7c0-2-0.2-3.9-0.5-5.7s-1.1-3.3-2.2-4.5s-2.6-1.9-4.6-1.9c-2.2,0-3.9,0.7-5,2.2
			s-1.8,3-2,4.6S24.4,27,24.4,28.5z"/>
	</g>
	<g class="st1">
		<path class="st2" d="M45.9,31l-0.6,0.3c-1.2-1.2-2.4-2-3.7-2.4c-1.3-0.4-2.6-0.2-3.9,0.5c-0.6,0.3-1.1,0.8-1.5,1.3
			c-0.4,0.5-0.6,1.1-0.7,1.7c-0.1,0.6,0.1,1.3,0.4,1.9c0.2,0.4,0.4,0.7,0.7,1c0.3,0.3,0.8,0.6,1.5,0.8s1.7,0.5,2.9,0.6
			c1.4,0.1,2.2,0.2,2.6,0.3c1.7,0.1,3.2,0.4,4.4,0.6c1.2,0.3,2.2,0.7,3.1,1.3s1.6,1.4,2.1,2.5c0.5,1,0.8,1.9,0.8,2.9
			c0,1-0.1,1.9-0.5,2.9c-0.4,0.9-1,1.8-1.7,2.6c-0.8,0.8-1.7,1.5-2.8,2.1c-1.1,0.6-2.6,1.1-4.3,1.4c-0.2,0-0.4,0.1-0.7,0.2
			c-0.3,0.1-0.5,0.2-0.7,0.3c-0.5,0.3-0.7,0.7-0.7,1.3l-0.5,0.3l-3.2-6.6l0.6-0.3c0.8,1.1,1.8,1.9,2.9,2.4s2.1,0.7,3.1,0.6
			c1-0.1,1.9-0.3,2.7-0.7c1.2-0.6,1.9-1.4,2.4-2.5s0.4-2-0.1-2.9c-0.3-0.6-0.8-1.1-1.3-1.4c-0.6-0.3-1.3-0.5-2.1-0.6
			s-2.5-0.3-4.8-0.5c-1.2-0.1-2.3-0.3-3.3-0.5c-0.9-0.2-1.7-0.5-2.4-0.8c-0.6-0.3-1.2-0.7-1.6-1.1c-0.4-0.4-0.8-0.9-1.1-1.5
			c-0.6-1.1-0.9-2.4-0.9-3.8c0-1.4,0.4-2.7,1.1-4c0.7-1.2,1.7-2.2,3.1-2.9c0.6-0.3,1.3-0.6,1.9-0.8c0.2-0.1,0.4-0.1,0.7-0.2
			c0.3-0.1,0.5-0.1,0.7-0.2c0.5-0.2,0.9-0.3,1.1-0.4c0.4-0.2,0.6-0.4,0.7-0.6c0.1-0.2,0.1-0.4,0.1-0.7l0.5-0.3L45.9,31z"/>
	</g>
</g>
</svg>
