<?xml version="1.0" encoding="utf-8"?>
<!-- Generator: Adobe Illustrator 19.2.0, SVG Export Plug-In . SVG Version: 6.00 Build 0)  -->
<svg version="1.1" id="Layer_1" xmlns="http://www.w3.org/2000/svg" xmlns:xlink="http://www.w3.org/1999/xlink" x="0px" y="0px"
	 viewBox="0 0 550 550" enable-background="new 0 0 550 550" xml:space="preserve">
<g id="Icon_Grid">
	<g id="squares">
	</g>
	<g>
	</g>
</g>
<circle id="background" fill="#DEDEE0" cx="274.6" cy="275" r="250"/>
<g id="mysql">
	<path fill="#07748E" d="M152,309v-57.9l-21,42.1h-12l-21-42.1V309H75.7v-96.8h24.3l25.1,50.6l25.2-50.6h24.1V309H152z"/>
	<path fill="#07748E" d="M190.7,319.8c2,0.6,3.8,1.1,5.5,1.4c1.7,0.3,3.2,0.4,4.4,0.4c2.4,0,4.3-0.9,5.8-2.8
		c1.5-1.9,2.7-5.1,3.7-9.7l-27.1-71.6h22.4l16.8,52.9l14.3-52.9h20.3l-27.4,83.1c-2,6-5.4,10.8-10.2,14.4
		c-4.8,3.6-10.3,5.4-16.6,5.5c-2,0-4-0.2-6-0.5c-2-0.3-4-0.8-6-1.6V319.8z"/>
	<path fill="#F7931E" d="M324.8,240.6c-0.4-0.4-1.4-1-3-2c-1.6-1-3.7-2-6.1-3.1c-2.5-1.1-5.1-2-8-2.9c-2.9-0.8-5.8-1.2-8.7-1.2
		c-3.8,0-6.7,0.7-8.8,2c-2,1.4-3.1,3.4-3.1,6c0,1.6,0.5,3,1.4,4.1c0.9,1.1,2.2,2.1,3.9,2.9c1.7,0.9,3.8,1.7,6.3,2.4
		c2.5,0.7,5.4,1.5,8.7,2.5c4.6,1.3,8.8,2.7,12.5,4.2c3.7,1.5,6.9,3.4,9.5,5.6c2.6,2.2,4.7,4.9,6.1,8.1c1.4,3.2,2.1,7,2.1,11.4
		c0,5.5-1,10.1-3.1,13.8c-2,3.8-4.7,6.8-8.1,9.1c-3.4,2.3-7.2,4-11.7,5c-4.4,1-8.9,1.6-13.6,1.6c-3.5,0-7.2-0.3-10.8-0.8
		c-3.7-0.5-7.3-1.3-10.8-2.4c-3.5-1-7-2.3-10.4-3.7c-3.4-1.5-6.5-3.1-9.3-5l9.8-19.5c0.5,0.5,1.7,1.3,3.7,2.6c2,1.3,4.5,2.5,7.4,3.8
		c2.9,1.3,6.2,2.4,9.8,3.4c3.6,1,7.3,1.5,11,1.5c7.9,0,11.9-2.4,11.9-7.2c0-1.8-0.6-3.3-1.8-4.5c-1.2-1.2-2.8-2.2-4.9-3.2
		c-2.1-1-4.5-1.8-7.4-2.7c-2.8-0.8-5.9-1.7-9.3-2.7c-4.5-1.4-8.3-2.8-11.6-4.4c-3.3-1.6-6-3.4-8.2-5.5c-2.2-2.1-3.8-4.5-4.8-7.2
		c-1-2.7-1.6-5.9-1.6-9.5c0-5.1,1-9.6,2.9-13.5c1.9-3.9,4.5-7.2,7.8-9.9c3.3-2.7,7.1-4.7,11.4-6.1c4.3-1.4,8.9-2,13.7-2
		c3.5,0,6.8,0.3,10.1,1c3.3,0.6,6.4,1.5,9.3,2.5c3,1,5.7,2.1,8.4,3.4c2.6,1.3,5,2.5,7.1,3.8L324.8,240.6z"/>
	<path fill="#F7931E" d="M375.7,310.4c-4.5,0-8.7-1-12.5-2.9c-3.8-1.9-7-4.5-9.7-7.9c-2.7-3.4-4.9-7.3-6.4-11.9
		c-1.5-4.5-2.3-9.4-2.3-14.7c0-5.2,0.8-10,2.5-14.5c1.7-4.5,4-8.4,7-11.7c3-3.3,6.4-5.9,10.5-7.8c4-1.9,8.5-2.9,13.3-2.9
		c5.5,0,10.2,1.2,14.1,3.5c4,2.4,7.2,5.5,9.9,9.5v-11.7h18.9v75c0,2.2,0.4,3.7,1.2,4.6c0.8,0.9,2.3,1.3,4.4,1.4v18.5
		c-1.9,0.4-4,0.6-6.2,0.8c-2.2,0.2-4.2,0.3-5.9,0.3c-2.1,0-4.1-0.3-5.9-1c-1.9-0.7-3.5-1.6-4.8-2.9c-1.4-1.2-2.5-2.7-3.3-4.4
		c-0.8-1.7-1.2-3.6-1.2-5.7v-26.6C394.2,306.1,386.4,310.4,375.7,310.4z M384,292c3.2,0,6-0.9,8.6-2.7c2.5-1.8,4.7-4.1,6.5-7v-15.1
		c-0.5-1.7-1.4-3.4-2.5-4.9c-1.1-1.5-2.4-2.9-3.8-4c-1.5-1.1-3-2-4.6-2.7c-1.6-0.6-3.3-1-4.9-1c-2.4,0-4.5,0.5-6.5,1.6
		c-2,1-3.7,2.4-5.2,4.2c-1.5,1.7-2.6,3.7-3.4,6c-0.8,2.3-1.2,4.7-1.2,7.2c0,5.4,1.6,9.8,4.7,13.2C374.8,290.2,378.9,292,384,292z"/>
	<path fill="#F7931E" d="M435.5,209.5h21.8v72.8c0,5.5,2.4,8.2,7.1,8.2c1,0,2.2-0.2,3.5-0.5c1.3-0.4,2.5-0.8,3.6-1.4l2.9,17.6
		c-2.7,1.3-5.9,2.3-9.4,3c-3.5,0.7-6.8,1.1-9.8,1.1c-6.3,0-11.1-1.6-14.5-4.9c-3.4-3.3-5.1-8-5.1-14.2V209.5z"/>
</g>
<g id="Working_Layer">
</g>
<g>
	<g>
		<path fill="#07748E" d="M410.5,212.3l-4.1-2.9l-4.1-2.9c-2.7-1.9-5.5-3.9-8.2-5.8c-2.7-1.9-5.4-3.9-8.1-5.9c-2.7-2-5.4-4-8.1-6
			l3.7-1.1c-0.6,2-1.3,3.9-2,5.9c-0.7,1.9-1.5,3.9-2.3,5.8c-0.8,1.9-1.7,3.8-2.7,5.7c-1,1.9-2.1,3.7-3.5,5.6
			c-0.7,0.9-1.5,1.8-2.5,2.7c-1,0.8-2.3,1.8-4.2,2.1c-0.5,0.1-1,0.1-1.5,0l-0.4-0.1l0,0l-0.2,0l0,0l-0.1,0l-0.4-0.1l-0.2,0l-0.3-0.1
			l-0.6-0.2c-0.4-0.2-0.7-0.3-1-0.5c-1.3-0.7-2.3-1.6-3.2-2.6c-1.7-1.9-2.8-4-3.7-6.1c-0.9-2.1-1.6-4.1-2.1-6.2
			c-1.1-4.1-1.8-8.3-2.2-12.4c-0.5-4.1-0.7-8.3-0.8-12.4c-0.1-4.1-0.1-8.2,0-12.3c0.1-2.1,0.2-4.1,0.3-6.1c0.1-2.1,0.3-4.1,0.4-6.2
			l0.2,1.1l-4.4-10.9l-2.3-5.5c-0.8-1.8-1.5-3.6-2.3-5.4l-2.3-5.4c-0.8-1.8-1.5-3.6-2.3-5.4l-2.4-5.4c-0.8-1.8-1.6-3.6-2.4-5.4
			l0.2,0.3c-1.6-1.6-3.2-3.2-4.7-4.9c-1.5-1.7-3-3.5-4.3-5.3c-1.4-1.9-2.7-3.8-3.6-6.1c-0.4-1.2-0.8-2.4-0.6-4
			c0.1-0.8,0.5-1.6,1.1-2.2c0.5-0.6,1.3-1.1,2-1.3c1.4-0.5,2.7-0.5,4-0.4c1.2,0.1,2.4,0.3,3.6,0.6c2.3,0.5,4.5,1.3,6.7,2.1
			c2.2,0.8,4.3,1.7,6.3,2.7c1,0.5,2.1,1,3.1,1.5c1,0.5,2,1,3.1,1.6l-1.7-0.3c2.3-0.6,4.5-1,6.8-1.3c2.3-0.3,4.5-0.5,6.8-0.6
			c2.3-0.1,4.6,0,7,0.3c2.3,0.3,4.7,0.8,7.1,1.6c1.2,0.4,2.3,1,3.4,1.6l0.8,0.5l0.5,0.3l0.3,0.2l1.4,0.9c1.9,1.4,3.7,2.8,5.4,4.2
			c3.5,2.9,6.7,5.9,9.9,9c6.4,6.1,12.5,12.5,18.5,19c3,3.2,5.9,6.6,8.8,9.9l4.3,5c1.4,1.7,2.9,3.3,4.3,5.1l-2.5-1.4
			c1.7,0.3,3.4,0.5,5,0.8c1.7,0.3,3.3,0.6,5,0.9c3.3,0.7,6.6,1.4,9.9,2.2c3.3,0.8,6.6,1.8,9.8,2.9c3.3,1.1,6.5,2.4,9.7,4
			c1.6,0.8,3.2,1.8,4.7,3c0.8,0.6,1.5,1.3,2.2,2.2c0.7,0.9,1.4,1.9,1.8,3.2c0.1,0.3,0.1,0.5,0.2,0.8c0,0.2,0.1,0.4,0.1,0.6
			c0,0.4,0,0.8,0,1.1c-0.1,0.7-0.3,1.4-0.5,1.9c-0.4,1.1-1,2-1.6,2.9c-1.2,1.6-2.4,2.9-3.7,4.1c-2.6,2.4-5.4,4.5-8.2,6.4
			c-1.4,1-2.8,1.9-4.3,2.8c-1.4,0.9-2.9,1.8-4.4,2.6l0.2-3.6c4.6,3.9,9.2,7.8,13.8,11.8l6.8,5.9c2.3,2,4.5,4,6.8,6l-0.5,0.6
			c-2.5-1.7-5-3.4-7.5-5.1l-7.4-5.2c-4.9-3.5-9.8-7-14.8-10.5l-2.5-1.8l2.7-1.8c1.3-0.9,2.7-1.8,4-2.8c1.3-1,2.6-1.9,3.9-2.9
			c2.5-2,5-4.1,7.2-6.4c1.1-1.1,2.1-2.3,2.8-3.4c0.4-0.6,0.6-1.1,0.8-1.5c0.1-0.2,0.1-0.4,0.1-0.5c0-0.1,0-0.1,0-0.1c0,0,0,0,0,0
			c0,0.1,0,0.1,0,0.2c-0.2-0.6-1-1.5-2.1-2.3c-1.1-0.8-2.4-1.5-3.7-2.2c-2.8-1.3-5.8-2.3-8.8-3.2c-3.1-0.9-6.2-1.7-9.4-2.4
			c-3.2-0.7-6.4-1.3-9.6-1.9c-1.6-0.3-3.2-0.6-4.8-0.8c-1.6-0.3-3.3-0.5-4.8-0.7l-1.5-0.2l-1-1.2l-4.2-5l-4.3-5l-8.6-9.8
			c-2.9-3.3-5.8-6.5-8.7-9.7c-3-3.2-5.9-6.4-9-9.4c-3-3.1-6.1-6.1-9.3-8.9c-1.6-1.4-3.2-2.8-4.8-4l-1.3-1l-0.3-0.2l-0.2-0.2
			l-0.6-0.4c-0.8-0.5-1.6-0.9-2.5-1.3c-3.5-1.4-7.6-2.1-11.8-2.2c-2.1-0.1-4.2,0-6.3,0.1c-2.1,0.1-4.3,0.4-6.2,0.7l-1,0.2l-0.7-0.4
			c-0.9-0.6-1.9-1.1-2.8-1.7c-1-0.6-1.9-1.1-2.9-1.6c-1.9-1.1-3.9-2.1-5.9-3c-2-0.9-4-1.7-6.1-2.3c-1-0.3-2-0.5-3-0.7
			c-1-0.1-2-0.1-2.7,0.1c-0.4,0.1-0.6,0.2-0.9,0.5c-0.2,0.2-0.3,0.4-0.4,0.8c-0.2,0.7,0,1.6,0.4,2.6c0.7,1.9,1.8,3.8,3.1,5.6
			c1.2,1.8,2.7,3.5,4.1,5.2c1.5,1.7,3,3.3,4.5,4.8l0.2,0.2l0.1,0.2c0.8,1.8,1.6,3.6,2.5,5.4l2.5,5.4c0.8,1.8,1.7,3.6,2.5,5.3
			l2.6,5.3c0.8,1.8,1.7,3.5,2.6,5.3l2.6,5.3l5.3,10.5l0.2,0.4l0,0.7c0,2,0,4,0.1,6l0.2,6c0.1,4,0.4,8,0.6,12c0.3,4,0.7,8,1.2,11.9
			c0.5,3.9,1.1,7.8,2.1,11.5c0.5,1.9,1,3.7,1.7,5.4c0.7,1.7,1.5,3.2,2.5,4.4c0.5,0.6,1,1,1.5,1.3c0.1,0,0.3,0.2,0.3,0.2
			c0,0,0.1,0,0.1,0c0,0,0,0,0.1,0l0.2,0l0.4,0.1l0.1,0l0,0c0,0-0.3-0.1-0.2,0l0,0l0,0c0,0,0,0,0,0c0.1,0,0.6-0.2,1.2-0.6
			c0.6-0.4,1.1-1,1.7-1.7c1.1-1.4,2.2-3,3.2-4.6c1-1.7,1.9-3.4,2.7-5.2c0.9-1.8,1.7-3.6,2.5-5.4c0.8-1.8,1.6-3.7,2.2-5.5l1.2-3.2
			l2.5,2.1c2.6,2.2,5.1,4.4,7.6,6.6c2.5,2.2,5.1,4.4,7.6,6.6c2.5,2.2,5,4.4,7.5,6.7l3.7,3.4l3.7,3.4L410.5,212.3z"/>
	</g>
	<path fill="#07748E" d="M348.8,107.9c0-1.9,7,0.8,7.7,1.8c0.4,0.6,2.8,5.3,0,6.4"/>
</g>
<g>
	<ellipse fill="none" stroke="#F7931E" stroke-width="3.5217" stroke-miterlimit="10" cx="495.4" cy="296.3" rx="14.1" ry="13.8"/>
	<g>
		<path fill="#F7931E" d="M489.7,303.3v-14.9h6.9c0.7,0,1.4,0.1,2,0.4c0.6,0.3,1.1,0.7,1.6,1.2c0.4,0.5,0.8,1,1,1.6
			c0.3,0.6,0.4,1.2,0.4,1.8c0,0.5-0.1,0.9-0.2,1.3c-0.1,0.4-0.3,0.8-0.5,1.2c-0.2,0.4-0.5,0.7-0.8,1s-0.7,0.6-1,0.8l3.5,5.5h-4
			l-3.1-4.8h-2.3v4.8H489.7z M493.2,295.5h3.2c0.4,0,0.8-0.2,1.1-0.6c0.3-0.4,0.5-0.9,0.5-1.5c0-0.6-0.2-1.1-0.5-1.5
			c-0.3-0.4-0.7-0.5-1.1-0.5h-3.1V295.5z"/>
	</g>
</g>
</svg>
