<svg id="Layer_1" data-name="Layer 1" xmlns="http://www.w3.org/2000/svg" viewBox="0 0 501 501">
  <defs>
    <style>
      .cls-1 {
        fill: #333;
      }

      .cls-2 {
        fill: #fff;
      }
    </style>
  </defs>
  <title>pen-icon</title>
  <g id="Working_Layer" data-name="Working Layer">
    <g id="pen-icon">
      <circle class="cls-1" cx="250" cy="250" r="250"/>
      <g id="pen-tool">
        <path class="cls-2" d="M172,419l97-173a25,25,0,1,1,7,4L178,422c28-29,110-114,170-125a6,6,0,0,0,4-9c-16-28-2-86,3-103a6,6,0,0,0-3-7l-62-35a6,6,0,0,0-8,1c-12,13-54,55-86,56a6,6,0,0,0-6,8C212,266,182,380,172,419Z" transform="translate(-25 -24)"/>
        <path class="cls-2" d="M333,54l74,42a6,6,0,0,1,2,9l-39,49a6,6,0,0,1-8,2l-57-32a6,6,0,0,1-3-8l22-59A6,6,0,0,1,333,54Z" transform="translate(-25 -24)"/>
      </g>
      <path class="cls-2" d="M472,346a10,10,0,0,0-18,9h0L337,431h0l-7-2h0l-6,2a10,10,0,0,0-4,6H180a10,10,0,1,0,0,5H320v3a10,10,0,0,0,9,5h0a10,10,0,0,0,9-13l117-76h0A10,10,0,0,0,472,346Z" transform="translate(-25 -24)"/>
    </g>
  </g>
</svg>
